# xmcd CD database file
#
# Track frame offsets:
#	150
#	34632
#	48370
#	62760
#	75402
#	89517
#	105790
#	118400
#	132565
#	145465
#	158037
#	181830
#	202262
#	231052
#	254537
#	289077
#	302812
#	326875
#
# Disc length: 4673 seconds
#
# Revision: 2
# Processed by: cddbd v1.5.1PL0 Copyright (c) Steve Scherf et al.
# Submitted via: CDex 1.51
#
DISCID=07123f12
DTITLE=Thelonius Monk - Thelonious Monk Trio - Blue Monk Vol 2
DYEAR=1991
DGENRE=Jazz
TTITLE0=Blue Monk
TTITLE1=Just A Gigolo
TTITLE2=Bemsha Swing
TTITLE3=Reflections
TTITLE4=Little Rootie Tootie
TTITLE5=Sweet And Lovely
TTITLE6=Bye-Ya
TTITLE7=Monk's Dream
TTITLE8=Trinkle Tinkle
TTITLE9=These Foolish Things Remind Me Of You
TTITLE10=We See
TTITLE11=Smoke Gets In Your Eyes
TTITLE12=Locomotive
TTITLE13=Hackensack
TTITLE14=Blue Monk
TTITLE15=Just A Gigolo
TTITLE16=Work
TTITLE17=Nutty
EXTD=YEAR: 1991
EXTT0=
EXTT1=
EXTT2=
EXTT3=
EXTT4=
EXTT5=
EXTT6=
EXTT7=
EXTT8=
EXTT9=
EXTT10=
EXTT11=
EXTT12=
EXTT13=
EXTT14=
EXTT15=
EXTT16=
EXTT17=
PLAYORDER=
